<mxfile host="app.diagrams.net" modified="2023-02-16T13:47:29.307Z" agent="5.0 (Windows NT 10.0; Win64; x64) AppleWebKit/537.36 (KHTML, like Gecko) Chrome/109.0.0.0 Safari/537.36" etag="-Aa8DbBolDjG821ODpoD" version="20.8.20" type="github">
  <diagram name="Page-1" id="90a13364-a465-7bf4-72fc-28e22215d7a0">
    <mxGraphModel dx="1434" dy="774" grid="1" gridSize="10" guides="1" tooltips="1" connect="1" arrows="1" fold="1" page="1" pageScale="1.5" pageWidth="1169" pageHeight="826" background="none" math="0" shadow="0">
      <root>
        <UserObject label="" animation="show p9neezHQhb8Hxo-Fc_9x-3 fade&#xa;wait 1000&#xa;flow p9neezHQhb8Hxo-Fc_9x-3&#xa;wait 1000&#xa;" id="0">
          <mxCell style=";html=1;" />
        </UserObject>
        <mxCell id="1" style=";html=1;" parent="0" />
        <mxCell id="3a17f1ce550125da-1" value="Software Control" style="whiteSpace=wrap;html=1;shadow=1;fontSize=20;fillColor=#f5f5f5;strokeColor=#666666;strokeWidth=2;dashed=1;" parent="1" vertex="1">
          <mxGeometry x="797" y="344" width="150" height="60" as="geometry" />
        </mxCell>
        <mxCell id="3a17f1ce550125da-13" style="edgeStyle=elbowEdgeStyle;rounded=0;html=1;startArrow=none;startFill=0;jettySize=auto;orthogonalLoop=1;fontSize=18;elbow=vertical;flowAnimation=1;targetPerimeterSpacing=4;jumpStyle=gap;strokeWidth=4;" parent="1" source="3a17f1ce550125da-2" target="3a17f1ce550125da-4" edge="1">
          <mxGeometry relative="1" as="geometry" />
        </mxCell>
        <mxCell id="3a17f1ce550125da-14" style="edgeStyle=elbowEdgeStyle;rounded=0;html=1;startArrow=none;startFill=0;jettySize=auto;orthogonalLoop=1;fontSize=18;elbow=vertical;" parent="1" source="3a17f1ce550125da-2" target="3a17f1ce550125da-5" edge="1">
          <mxGeometry relative="1" as="geometry" />
        </mxCell>
        <mxCell id="3a17f1ce550125da-15" style="edgeStyle=elbowEdgeStyle;rounded=0;html=1;startArrow=none;startFill=0;jettySize=auto;orthogonalLoop=1;fontSize=18;elbow=vertical;" parent="1" source="3a17f1ce550125da-2" target="3a17f1ce550125da-6" edge="1">
          <mxGeometry relative="1" as="geometry" />
        </mxCell>
        <mxCell id="3a17f1ce550125da-16" style="edgeStyle=elbowEdgeStyle;rounded=0;html=1;startArrow=none;startFill=0;jettySize=auto;orthogonalLoop=1;fontSize=18;elbow=vertical;" parent="1" source="3a17f1ce550125da-2" target="3a17f1ce550125da-7" edge="1">
          <mxGeometry relative="1" as="geometry" />
        </mxCell>
        <mxCell id="3a17f1ce550125da-17" style="edgeStyle=elbowEdgeStyle;rounded=0;html=1;startArrow=none;startFill=0;jettySize=auto;orthogonalLoop=1;fontSize=18;" parent="1" source="3a17f1ce550125da-10" target="3a17f1ce550125da-2" edge="1">
          <mxGeometry relative="1" as="geometry">
            <Array as="points">
              <mxPoint x="907" y="754" />
            </Array>
          </mxGeometry>
        </mxCell>
        <mxCell id="3a17f1ce550125da-2" value="Custom switch Matrix&lt;div&gt;&lt;br&gt;&lt;/div&gt;&lt;div&gt;(switches, couplers, mixer, amps, attenu, splitters)&lt;/div&gt;" style="whiteSpace=wrap;html=1;shadow=1;fontSize=18;fillColor=#f5f5f5;strokeColor=#666666;" parent="1" vertex="1">
          <mxGeometry x="787" y="454" width="170" height="280" as="geometry" />
        </mxCell>
        <mxCell id="3a17f1ce550125da-4" value="Spectrum Analyzer" style="whiteSpace=wrap;html=1;shadow=1;fontSize=18;fillColor=#f5f5f5;strokeColor=#666666;" parent="1" vertex="1">
          <mxGeometry x="1250" y="444" width="120" height="60" as="geometry" />
        </mxCell>
        <mxCell id="3a17f1ce550125da-5" value="Network Analyzer" style="whiteSpace=wrap;html=1;shadow=1;fontSize=18;fillColor=#f5f5f5;strokeColor=#666666;" parent="1" vertex="1">
          <mxGeometry x="1037" y="524" width="120" height="60" as="geometry" />
        </mxCell>
        <mxCell id="3a17f1ce550125da-6" value="Power Meter" style="whiteSpace=wrap;html=1;shadow=1;fontSize=18;fillColor=#f5f5f5;strokeColor=#666666;" parent="1" vertex="1">
          <mxGeometry x="1037" y="604" width="120" height="60" as="geometry" />
        </mxCell>
        <mxCell id="3a17f1ce550125da-7" value="Freq. Count" style="whiteSpace=wrap;html=1;shadow=1;fontSize=18;fillColor=#f5f5f5;strokeColor=#666666;" parent="1" vertex="1">
          <mxGeometry x="1037" y="684" width="120" height="60" as="geometry" />
        </mxCell>
        <mxCell id="3a17f1ce550125da-20" style="edgeStyle=elbowEdgeStyle;rounded=0;html=1;startArrow=none;startFill=0;jettySize=auto;orthogonalLoop=1;fontSize=18;elbow=vertical;" parent="1" source="3a17f1ce550125da-8" target="3a17f1ce550125da-2" edge="1">
          <mxGeometry relative="1" as="geometry">
            <Array as="points">
              <mxPoint x="757" y="514" />
            </Array>
          </mxGeometry>
        </mxCell>
        <mxCell id="3a17f1ce550125da-8" value="Vector Signal Generator" style="whiteSpace=wrap;html=1;shadow=1;fontSize=18;fillColor=#f5f5f5;strokeColor=#666666;" parent="1" vertex="1">
          <mxGeometry x="597" y="444" width="120" height="150" as="geometry" />
        </mxCell>
        <mxCell id="3a17f1ce550125da-21" style="edgeStyle=elbowEdgeStyle;rounded=0;html=1;startArrow=none;startFill=0;jettySize=auto;orthogonalLoop=1;fontSize=18;elbow=vertical;" parent="1" source="3a17f1ce550125da-9" target="3a17f1ce550125da-2" edge="1">
          <mxGeometry relative="1" as="geometry" />
        </mxCell>
        <mxCell id="3a17f1ce550125da-9" value="ARB / Mod Source" style="whiteSpace=wrap;html=1;shadow=1;fontSize=18;fillColor=#f5f5f5;strokeColor=#666666;" parent="1" vertex="1">
          <mxGeometry x="597" y="634" width="120" height="60" as="geometry" />
        </mxCell>
        <mxCell id="3a17f1ce550125da-10" value="DUT" style="whiteSpace=wrap;html=1;shadow=1;fontSize=18;fillColor=#f5f5f5;strokeColor=#666666;" parent="1" vertex="1">
          <mxGeometry x="799.5" y="774" width="145" height="120" as="geometry" />
        </mxCell>
        <mxCell id="3a17f1ce550125da-18" style="edgeStyle=elbowEdgeStyle;rounded=0;html=1;startArrow=none;startFill=0;jettySize=auto;orthogonalLoop=1;fontSize=18;elbow=vertical;" parent="1" source="3a17f1ce550125da-11" target="3a17f1ce550125da-10" edge="1">
          <mxGeometry relative="1" as="geometry" />
        </mxCell>
        <mxCell id="3a17f1ce550125da-11" value="DC Power Supplies" style="whiteSpace=wrap;html=1;shadow=1;fontSize=18;fillColor=#f5f5f5;strokeColor=#666666;" parent="1" vertex="1">
          <mxGeometry x="597" y="804" width="120" height="60" as="geometry" />
        </mxCell>
        <mxCell id="3a17f1ce550125da-22" style="edgeStyle=elbowEdgeStyle;rounded=0;html=1;startArrow=none;startFill=0;jettySize=auto;orthogonalLoop=1;fontSize=18;" parent="1" source="3a17f1ce550125da-10" target="3a17f1ce550125da-2" edge="1">
          <mxGeometry relative="1" as="geometry">
            <mxPoint x="937" y="784" as="sourcePoint" />
            <mxPoint x="937" y="744" as="targetPoint" />
            <Array as="points">
              <mxPoint x="927" y="754" />
              <mxPoint x="907" y="754" />
            </Array>
          </mxGeometry>
        </mxCell>
        <mxCell id="3a17f1ce550125da-23" style="edgeStyle=elbowEdgeStyle;rounded=0;html=1;startArrow=none;startFill=0;jettySize=auto;orthogonalLoop=1;fontSize=18;" parent="1" edge="1">
          <mxGeometry relative="1" as="geometry">
            <mxPoint x="887" y="774" as="sourcePoint" />
            <mxPoint x="887" y="734" as="targetPoint" />
            <Array as="points">
              <mxPoint x="887" y="754" />
              <mxPoint x="887" y="754" />
            </Array>
          </mxGeometry>
        </mxCell>
        <mxCell id="3a17f1ce550125da-24" style="edgeStyle=elbowEdgeStyle;rounded=0;html=1;startArrow=none;startFill=0;jettySize=auto;orthogonalLoop=1;fontSize=18;" parent="1" edge="1">
          <mxGeometry relative="1" as="geometry">
            <mxPoint x="857" y="734" as="sourcePoint" />
            <mxPoint x="857" y="774" as="targetPoint" />
            <Array as="points">
              <mxPoint x="857" y="754" />
              <mxPoint x="887" y="764" />
            </Array>
          </mxGeometry>
        </mxCell>
        <mxCell id="3a17f1ce550125da-25" style="edgeStyle=elbowEdgeStyle;rounded=0;html=1;startArrow=none;startFill=0;jettySize=auto;orthogonalLoop=1;fontSize=18;" parent="1" edge="1">
          <mxGeometry relative="1" as="geometry">
            <mxPoint x="837" y="734" as="sourcePoint" />
            <mxPoint x="837" y="774" as="targetPoint" />
            <Array as="points">
              <mxPoint x="837" y="754" />
              <mxPoint x="867" y="764" />
            </Array>
          </mxGeometry>
        </mxCell>
        <mxCell id="3a17f1ce550125da-26" style="edgeStyle=elbowEdgeStyle;rounded=0;html=1;startArrow=none;startFill=0;jettySize=auto;orthogonalLoop=1;fontSize=18;" parent="1" edge="1">
          <mxGeometry relative="1" as="geometry">
            <mxPoint x="817" y="734" as="sourcePoint" />
            <mxPoint x="817" y="774" as="targetPoint" />
            <Array as="points">
              <mxPoint x="817" y="754" />
              <mxPoint x="847" y="764" />
            </Array>
          </mxGeometry>
        </mxCell>
        <mxCell id="p9neezHQhb8Hxo-Fc_9x-1" value="" style="curved=1;endArrow=classic;html=1;rounded=0;sketch=0;strokeWidth=4;targetPerimeterSpacing=4;jumpStyle=gap;flowAnimation=1;exitX=1;exitY=0.5;exitDx=0;exitDy=0;entryX=0.383;entryY=0.983;entryDx=0;entryDy=0;entryPerimeter=0;dashed=1;dashPattern=1 1;sourcePerimeterSpacing=1;startSize=14;" edge="1" parent="1" source="3a17f1ce550125da-10" target="3a17f1ce550125da-4">
          <mxGeometry width="50" height="50" relative="1" as="geometry">
            <mxPoint x="1000" y="880" as="sourcePoint" />
            <mxPoint x="1370" y="610" as="targetPoint" />
            <Array as="points">
              <mxPoint x="1160" y="890" />
              <mxPoint x="1290" y="760" />
              <mxPoint x="1160" y="700" />
              <mxPoint x="1310" y="630" />
            </Array>
          </mxGeometry>
        </mxCell>
        <mxCell id="p9neezHQhb8Hxo-Fc_9x-3" value="" style="rounded=1;whiteSpace=wrap;html=1;treeMoving=1;treeFolding=1;dashed=1;arcSize=33;" vertex="1" parent="1">
          <mxGeometry x="1100" y="260" width="210" height="120" as="geometry" />
        </mxCell>
        <mxCell id="p9neezHQhb8Hxo-Fc_9x-4" value="" style="dashed=0;outlineConnect=0;html=1;align=center;labelPosition=center;verticalLabelPosition=bottom;verticalAlign=top;shape=mxgraph.webicons.github;gradientColor=#DFDEDE;rounded=1;" vertex="1" parent="1">
          <mxGeometry x="270" y="580" width="102.4" height="102.4" as="geometry" />
        </mxCell>
      </root>
    </mxGraphModel>
  </diagram>
</mxfile>
